<svg data-v-423bf9ae="" xmlns="http://www.w3.org/2000/svg" viewBox="0 0 361.243466460861 60" class="font"><!----><!----><!----><g data-v-423bf9ae="" id="f1a69417-c9db-4f0a-be6b-bc38b6d08c6c" fill="white" transform="matrix(5.612722390569883,0,0,5.612722390569883,-3.311501313582937,-0.0561269792152892)"><path d="M6.89 10.70L2.86 6.06L2.86 10.36L2.98 10.49L0.59 10.49L0.71 10.36L0.71 0.07L0.85 0.07L4.89 5.28L4.89 0.29L4.75 0.17L7.15 0.17L7.01 0.29L7.01 10.70L6.89 10.70ZM13.13 10.37L12.73 8.81L10.64 8.81L10.25 10.37L10.37 10.50L7.77 10.50L7.92 10.37L10.47 0.31L10.35 0.18L13.01 0.18L12.87 0.31L15.46 10.37L15.58 10.50L12.99 10.50L13.13 10.37ZM11.69 3.42L11.66 3.42L11.12 6.69L12.24 6.69L11.69 3.42ZM22.55 10.70L18.52 6.06L18.52 10.36L18.65 10.49L16.25 10.49L16.38 10.36L16.38 0.07L16.52 0.07L20.55 5.28L20.55 0.29L20.41 0.17L22.82 0.17L22.68 0.29L22.68 10.70L22.55 10.70ZM27.31 0.01L27.31 0.01L27.31 0.01Q28.13 0.01 28.73 0.24L28.73 0.24L28.73 0.24Q29.33 0.48 29.71 0.87L29.71 0.87L29.71 0.87Q30.10 1.26 30.29 1.76L30.29 1.76L30.29 1.76Q30.48 2.25 30.48 2.79L30.48 2.79L30.48 7.84L30.48 7.84Q30.48 8.37 30.28 8.88L30.28 8.88L30.28 8.88Q30.09 9.38 29.69 9.77L29.69 9.77L29.69 9.77Q29.30 10.15 28.71 10.39L28.71 10.39L28.71 10.39Q28.11 10.63 27.31 10.63L27.31 10.63L27.31 10.63Q26.53 10.63 25.93 10.39L25.93 10.39L25.93 10.39Q25.33 10.15 24.92 9.77L24.92 9.77L24.92 9.77Q24.51 9.38 24.30 8.88L24.30 8.88L24.30 8.88Q24.09 8.37 24.09 7.84L24.09 7.84L24.09 2.79L24.09 2.79Q24.09 2.25 24.28 1.76L24.28 1.76L24.28 1.76Q24.47 1.26 24.86 0.87L24.86 0.87L24.86 0.87Q25.26 0.48 25.86 0.24L25.86 0.24L25.86 0.24Q26.47 0.01 27.31 0.01ZM28.22 7.84L28.22 2.79L28.22 2.79Q28.22 2.48 27.93 2.32L27.93 2.32L27.93 2.32Q27.64 2.17 27.29 2.17L27.29 2.17L27.29 2.17Q26.94 2.17 26.64 2.32L26.64 2.32L26.64 2.32Q26.35 2.48 26.35 2.79L26.35 2.79L26.35 7.84L26.35 7.84Q26.35 8.19 26.64 8.37L26.64 8.37L26.64 8.37Q26.94 8.54 27.29 8.54L27.29 8.54L27.29 8.54Q27.64 8.54 27.93 8.37L27.93 8.37L27.93 8.37Q28.22 8.19 28.22 7.84L28.22 7.84ZM34.13 2.87L34.13 7.81L34.13 7.81Q34.13 7.99 34.26 8.12L34.26 8.12L34.26 8.12Q34.38 8.25 34.58 8.25L34.58 8.25L36.97 8.25L36.97 10.50L34.58 10.50L34.58 10.50Q34.02 10.50 33.53 10.29L33.53 10.29L33.53 10.29Q33.04 10.08 32.67 9.72L32.67 9.72L32.67 9.72Q32.30 9.35 32.09 8.86L32.09 8.86L32.09 8.86Q31.88 8.37 31.88 7.81L31.88 7.81L31.88 2.87L31.88 2.87Q31.88 2.31 32.09 1.82L32.09 1.82L32.09 1.82Q32.30 1.33 32.67 0.96L32.67 0.96L32.67 0.96Q33.04 0.59 33.53 0.38L33.53 0.38L33.53 0.38Q34.02 0.17 34.58 0.17L34.58 0.17L36.86 0.17L36.86 2.42L34.58 2.42L34.58 2.42Q34.38 2.42 34.26 2.55L34.26 2.55L34.26 2.55Q34.13 2.67 34.13 2.87L34.13 2.87ZM41.40 0.01L41.40 0.01L41.40 0.01Q42.21 0.01 42.81 0.24L42.81 0.24L42.81 0.24Q43.41 0.48 43.80 0.87L43.80 0.87L43.80 0.87Q44.18 1.26 44.37 1.76L44.37 1.76L44.37 1.76Q44.56 2.25 44.56 2.79L44.56 2.79L44.56 7.84L44.56 7.84Q44.56 8.37 44.37 8.88L44.37 8.88L44.37 8.88Q44.17 9.38 43.78 9.77L43.78 9.77L43.78 9.77Q43.39 10.15 42.79 10.39L42.79 10.39L42.79 10.39Q42.20 10.63 41.40 10.63L41.40 10.63L41.40 10.63Q40.61 10.63 40.01 10.39L40.01 10.39L40.01 10.39Q39.41 10.15 39.00 9.77L39.00 9.77L39.00 9.77Q38.60 9.38 38.39 8.88L38.39 8.88L38.39 8.88Q38.18 8.37 38.18 7.84L38.18 7.84L38.18 2.79L38.18 2.79Q38.18 2.25 38.37 1.76L38.37 1.76L38.37 1.76Q38.56 1.26 38.95 0.87L38.95 0.87L38.95 0.87Q39.34 0.48 39.95 0.24L39.95 0.24L39.95 0.24Q40.56 0.01 41.40 0.01ZM42.31 7.84L42.31 2.79L42.31 2.79Q42.31 2.48 42.01 2.32L42.01 2.32L42.01 2.32Q41.72 2.17 41.37 2.17L41.37 2.17L41.37 2.17Q41.02 2.17 40.73 2.32L40.73 2.32L40.73 2.32Q40.43 2.48 40.43 2.79L40.43 2.79L40.43 7.84L40.43 7.84Q40.43 8.19 40.73 8.37L40.73 8.37L40.73 8.37Q41.02 8.54 41.37 8.54L41.37 8.54L41.37 8.54Q41.72 8.54 42.01 8.37L42.01 8.37L42.01 8.37Q42.31 8.19 42.31 7.84L42.31 7.84ZM45.84 0.17L49.20 0.17L49.20 0.17Q49.76 0.17 50.25 0.34L50.25 0.34L50.25 0.34Q50.74 0.52 51.10 0.86L51.10 0.86L51.10 0.86Q51.46 1.20 51.67 1.71L51.67 1.71L51.67 1.71Q51.88 2.21 51.88 2.87L51.88 2.87L51.88 7.81L51.88 7.81Q51.88 8.51 51.67 9.02L51.67 9.02L51.67 9.02Q51.46 9.52 51.10 9.85L51.10 9.85L51.10 9.85Q50.74 10.18 50.25 10.34L50.25 10.34L50.25 10.34Q49.76 10.50 49.20 10.50L49.20 10.50L45.84 10.50L45.96 10.37L45.96 0.29L45.84 0.17ZM49.63 7.81L49.63 2.87L49.63 2.87Q49.63 2.67 49.50 2.55L49.50 2.55L49.50 2.55Q49.38 2.42 49.20 2.42L49.20 2.42L48.22 2.42L48.22 8.25L49.20 8.25L49.20 8.25Q49.38 8.25 49.50 8.12L49.50 8.12L49.50 8.12Q49.63 7.99 49.63 7.81L49.63 7.81ZM53.27 0.17L53.27 0.17L57.90 0.17L58.02 0.04L58.02 2.55L57.89 2.42L55.52 2.42L55.52 4.20L57.69 4.20L57.82 4.07L57.82 6.59L57.69 6.45L55.52 6.45L55.52 8.25L58.10 8.25L58.23 8.12L58.23 10.63L58.10 10.50L53.14 10.50L53.27 10.37L53.27 0.17ZM62.19 4.20L62.19 4.20L62.19 4.20Q62.68 4.37 63.18 4.62L63.18 4.62L63.18 4.62Q63.69 4.87 64.08 5.25L64.08 5.25L64.08 5.25Q64.48 5.63 64.73 6.15L64.73 6.15L64.73 6.15Q64.97 6.66 64.95 7.38L64.95 7.38L64.95 7.38Q64.92 7.92 64.80 8.34L64.80 8.34L64.80 8.34Q64.68 8.76 64.50 9.08L64.50 9.08L64.50 9.08Q64.32 9.39 64.10 9.61L64.10 9.61L64.10 9.61Q63.88 9.83 63.69 9.97L63.69 9.97L63.69 9.97Q63.18 10.33 62.57 10.46L62.57 10.46L62.57 10.46Q61.96 10.58 61.35 10.54L61.35 10.54L61.35 10.54Q60.73 10.49 60.14 10.29L60.14 10.29L60.14 10.29Q59.54 10.09 59.07 9.81L59.07 9.81L59.75 7.62L59.75 7.62Q60.09 7.77 60.55 7.95L60.55 7.95L60.55 7.95Q61.01 8.12 61.45 8.18L61.45 8.18L61.45 8.18Q61.89 8.23 62.23 8.10L62.23 8.10L62.23 8.10Q62.57 7.97 62.68 7.48L62.68 7.48L62.68 7.48Q62.75 7.17 62.50 6.95L62.50 6.95L62.50 6.95Q62.26 6.73 61.85 6.52L61.85 6.52L61.85 6.52Q61.45 6.31 60.95 6.05L60.95 6.05L60.95 6.05Q60.45 5.80 60.03 5.42L60.03 5.42L60.03 5.42Q59.61 5.04 59.34 4.48L59.34 4.48L59.34 4.48Q59.07 3.92 59.09 3.11L59.09 3.11L59.09 3.11Q59.14 2.06 59.64 1.38L59.64 1.38L59.64 1.38Q60.14 0.70 60.92 0.39L60.92 0.39L60.92 0.39Q61.70 0.08 62.64 0.13L62.64 0.13L62.64 0.13Q63.59 0.18 64.51 0.59L64.51 0.59L63.78 2.60L63.78 2.60Q63.55 2.51 63.15 2.41L63.15 2.41L63.15 2.41Q62.76 2.32 62.38 2.35L62.38 2.35L62.38 2.35Q62.01 2.37 61.71 2.54L61.71 2.54L61.71 2.54Q61.42 2.72 61.36 3.15L61.36 3.15L61.36 3.15Q61.31 3.53 61.57 3.79L61.57 3.79L61.57 3.79Q61.84 4.05 62.19 4.20Z"></path></g><!----><!----></svg>